{
    "asset" : {
        "generator" : "Khronos glTF Blender I/O v1.4.40",
        "version" : "2.0"
    },
    "scene" : 0,
    "scenes" : [
        {
            "name" : "Scene",
            "nodes" : [
                0,
                1,
                2,
                3,
                4,
                5,
                6,
                7,
                8,
                9
            ]
        }
    ],
    "nodes" : [
        {
            "mesh" : 0,
            "name" : "Multiplex.009",
            "rotation" : [
                0.7071068286895752,
                0,
                0,
                0.7071067094802856
            ]
        },
        {
            "mesh" : 1,
            "name" : "Toilet.008",
            "rotation" : [
                0.7071068286895752,
                0,
                0,
                0.7071067094802856
            ]
        },
        {
            "mesh" : 2,
            "name" : "Color_RGB_0_1_255.008",
            "rotation" : [
                0.7071068286895752,
                0,
                0,
                0.7071067094802856
            ]
        },
        {
            "mesh" : 3,
            "name" : "Laminate__Navy.008",
            "rotation" : [
                0.7071068286895752,
                0,
                0,
                0.7071067094802856
            ]
        },
        {
            "mesh" : 4,
            "name" : "Color_RGB_120_120_120.008",
            "rotation" : [
                0.7071068286895752,
                0,
                0,
                0.7071067094802856
            ]
        },
        {
            "mesh" : 5,
            "name" : "Color_RGB_255_255_255.008",
            "rotation" : [
                0.7071068286895752,
                0,
                0,
                0.7071067094802856
            ]
        },
        {
            "mesh" : 6,
            "name" : "wandbekleding___tegels.006",
            "rotation" : [
                0.7071068286895752,
                0,
                0,
                0.7071067094802856
            ]
        },
        {
            "mesh" : 7,
            "name" : "gipskarton___voorzetwanden.009",
            "rotation" : [
                0.7071068286895752,
                0,
                0,
                0.7071067094802856
            ]
        },
        {
            "mesh" : 8,
            "name" : "Generic.009",
            "rotation" : [
                0.7071068286895752,
                0,
                0,
                0.7071067094802856
            ]
        },
        {
            "mesh" : 9,
            "name" : "GVH_h2_Staal_Generiek.009",
            "rotation" : [
                0.7071068286895752,
                0,
                0,
                0.7071067094802856
            ]
        }
    ],
    "materials" : [
        {
            "doubleSided" : true,
            "name" : "wire_000000000.010",
            "pbrMetallicRoughness" : {
                "baseColorFactor" : [
                    0.800000011920929,
                    0.800000011920929,
                    0.800000011920929,
                    1
                ],
                "metallicFactor" : 0,
                "roughnessFactor" : 0.5
            }
        }
    ],
    "meshes" : [
        {
            "name" : "Multiplex.009",
            "primitives" : [
                {
                    "attributes" : {
                        "POSITION" : 0,
                        "NORMAL" : 1,
                        "TEXCOORD_0" : 2
                    },
                    "indices" : 3,
                    "material" : 0
                }
            ]
        },
        {
            "name" : "Toilet.008",
            "primitives" : [
                {
                    "attributes" : {
                        "POSITION" : 4,
                        "NORMAL" : 5,
                        "TEXCOORD_0" : 6
                    },
                    "indices" : 7,
                    "material" : 0
                }
            ]
        },
        {
            "name" : "Color_RGB_0_1_255.008",
            "primitives" : [
                {
                    "attributes" : {
                        "POSITION" : 8,
                        "NORMAL" : 9,
                        "TEXCOORD_0" : 10
                    },
                    "indices" : 11,
                    "material" : 0
                }
            ]
        },
        {
            "name" : "Laminate__Navy.008",
            "primitives" : [
                {
                    "attributes" : {
                        "POSITION" : 12,
                        "NORMAL" : 13,
                        "TEXCOORD_0" : 14
                    },
                    "indices" : 15,
                    "material" : 0
                }
            ]
        },
        {
            "name" : "Color_RGB_120_120_120.008",
            "primitives" : [
                {
                    "attributes" : {
                        "POSITION" : 16,
                        "NORMAL" : 17,
                        "TEXCOORD_0" : 18
                    },
                    "indices" : 19,
                    "material" : 0
                }
            ]
        },
        {
            "name" : "Color_RGB_255_255_255.008",
            "primitives" : [
                {
                    "attributes" : {
                        "POSITION" : 20,
                        "NORMAL" : 21,
                        "TEXCOORD_0" : 22
                    },
                    "indices" : 23,
                    "material" : 0
                }
            ]
        },
        {
            "name" : "wandbekleding___tegels.006",
            "primitives" : [
                {
                    "attributes" : {
                        "POSITION" : 24,
                        "NORMAL" : 25,
                        "TEXCOORD_0" : 26
                    },
                    "indices" : 27,
                    "material" : 0
                }
            ]
        },
        {
            "name" : "gipskarton___voorzetwanden.009",
            "primitives" : [
                {
                    "attributes" : {
                        "POSITION" : 28,
                        "NORMAL" : 29,
                        "TEXCOORD_0" : 30
                    },
                    "indices" : 31,
                    "material" : 0
                }
            ]
        },
        {
            "name" : "Generic.009",
            "primitives" : [
                {
                    "attributes" : {
                        "POSITION" : 32,
                        "NORMAL" : 33,
                        "TEXCOORD_0" : 34
                    },
                    "indices" : 35,
                    "material" : 0
                }
            ]
        },
        {
            "name" : "GVH_h2_Staal_Generiek.009",
            "primitives" : [
                {
                    "attributes" : {
                        "POSITION" : 36,
                        "NORMAL" : 37,
                        "TEXCOORD_0" : 38
                    },
                    "indices" : 39,
                    "material" : 0
                }
            ]
        }
    ],
    "accessors" : [
        {
            "bufferView" : 0,
            "componentType" : 5126,
            "count" : 20,
            "max" : [
                20.466567993164062,
                -11.896845817565918,
                0
            ],
            "min" : [
                16.687040328979492,
                -16.463775634765625,
                -0.24803100526332855
            ],
            "type" : "VEC3"
        },
        {
            "bufferView" : 1,
            "componentType" : 5126,
            "count" : 20,
            "type" : "VEC3"
        },
        {
            "bufferView" : 2,
            "componentType" : 5126,
            "count" : 20,
            "type" : "VEC2"
        },
        {
            "bufferView" : 3,
            "componentType" : 5123,
            "count" : 30,
            "type" : "SCALAR"
        },
        {
            "bufferView" : 4,
            "componentType" : 5126,
            "count" : 2821,
            "max" : [
                19.334659576416016,
                -13.550958633422852,
                -0.7762439846992493
            ],
            "min" : [
                17.858280181884766,
                -15.772516250610352,
                -2.293307065963745
            ],
            "type" : "VEC3"
        },
        {
            "bufferView" : 5,
            "componentType" : 5126,
            "count" : 2821,
            "type" : "VEC3"
        },
        {
            "bufferView" : 6,
            "componentType" : 5126,
            "count" : 2821,
            "type" : "VEC2"
        },
        {
            "bufferView" : 7,
            "componentType" : 5123,
            "count" : 9723,
            "type" : "SCALAR"
        },
        {
            "bufferView" : 8,
            "componentType" : 5126,
            "count" : 224,
            "max" : [
                19.10065269470215,
                -15.46543025970459,
                -4.162402153015137
            ],
            "min" : [
                18.13214874267578,
                -15.524484634399414,
                -4.808071136474609
            ],
            "type" : "VEC3"
        },
        {
            "bufferView" : 9,
            "componentType" : 5126,
            "count" : 224,
            "type" : "VEC3"
        },
        {
            "bufferView" : 10,
            "componentType" : 5126,
            "count" : 224,
            "type" : "VEC2"
        },
        {
            "bufferView" : 11,
            "componentType" : 5123,
            "count" : 612,
            "type" : "SCALAR"
        },
        {
            "bufferView" : 12,
            "componentType" : 5126,
            "count" : 24,
            "max" : [
                18.262067794799805,
                -15.870941162109375,
                -3.5996289253234863
            ],
            "min" : [
                18.143959045410156,
                -15.878814697265625,
                -3.7177391052246094
            ],
            "type" : "VEC3"
        },
        {
            "bufferView" : 13,
            "componentType" : 5126,
            "count" : 24,
            "type" : "VEC3"
        },
        {
            "bufferView" : 14,
            "componentType" : 5126,
            "count" : 24,
            "type" : "VEC2"
        },
        {
            "bufferView" : 15,
            "componentType" : 5123,
            "count" : 36,
            "type" : "SCALAR"
        },
        {
            "bufferView" : 16,
            "componentType" : 5126,
            "count" : 750,
            "max" : [
                18.984207153320312,
                -15.870941162109375,
                -3.5970170497894287
            ],
            "min" : [
                18.288267135620117,
                -15.878814697265625,
                -3.7169439792633057
            ],
            "type" : "VEC3"
        },
        {
            "bufferView" : 17,
            "componentType" : 5126,
            "count" : 750,
            "type" : "VEC3"
        },
        {
            "bufferView" : 18,
            "componentType" : 5126,
            "count" : 750,
            "type" : "VEC2"
        },
        {
            "bufferView" : 19,
            "componentType" : 5123,
            "count" : 1452,
            "type" : "SCALAR"
        },
        {
            "bufferView" : 20,
            "componentType" : 5126,
            "count" : 1574,
            "max" : [
                19.435298919677734,
                -15.52448558807373,
                -1.8809059858322144
            ],
            "min" : [
                17.797502517700195,
                -16.335508346557617,
                -4.777248859405518
            ],
            "type" : "VEC3"
        },
        {
            "bufferView" : 21,
            "componentType" : 5126,
            "count" : 1574,
            "type" : "VEC3"
        },
        {
            "bufferView" : 22,
            "componentType" : 5126,
            "count" : 1574,
            "type" : "VEC2"
        },
        {
            "bufferView" : 23,
            "componentType" : 5123,
            "count" : 4161,
            "type" : "SCALAR"
        },
        {
            "bufferView" : 24,
            "componentType" : 5126,
            "count" : 28,
            "max" : [
                20.466567993164062,
                -11.896845817565918,
                -0.24803200364112854
            ],
            "min" : [
                16.687040328979492,
                -16.463775634765625,
                -5.359384059906006
            ],
            "type" : "VEC3"
        },
        {
            "bufferView" : 25,
            "componentType" : 5126,
            "count" : 28,
            "type" : "VEC3"
        },
        {
            "bufferView" : 26,
            "componentType" : 5126,
            "count" : 28,
            "type" : "VEC2"
        },
        {
            "bufferView" : 27,
            "componentType" : 5123,
            "count" : 42,
            "type" : "SCALAR"
        },
        {
            "bufferView" : 28,
            "componentType" : 5126,
            "count" : 359,
            "max" : [
                20.80140495300293,
                -11.562199592590332,
                0.019930999726057053
            ],
            "min" : [
                16.470693588256836,
                -16.678884506225586,
                -10.346170425415039
            ],
            "type" : "VEC3"
        },
        {
            "bufferView" : 29,
            "componentType" : 5126,
            "count" : 359,
            "type" : "VEC3"
        },
        {
            "bufferView" : 30,
            "componentType" : 5126,
            "count" : 359,
            "type" : "VEC2"
        },
        {
            "bufferView" : 31,
            "componentType" : 5123,
            "count" : 573,
            "type" : "SCALAR"
        },
        {
            "bufferView" : 32,
            "componentType" : 5126,
            "count" : 2145,
            "max" : [
                20.686603546142578,
                -11.676612854003906,
                0
            ],
            "min" : [
                16.467004776000977,
                -16.682384490966797,
                -10.286486625671387
            ],
            "type" : "VEC3"
        },
        {
            "bufferView" : 33,
            "componentType" : 5126,
            "count" : 2145,
            "type" : "VEC3"
        },
        {
            "bufferView" : 34,
            "componentType" : 5126,
            "count" : 2145,
            "type" : "VEC2"
        },
        {
            "bufferView" : 35,
            "componentType" : 5123,
            "count" : 4398,
            "type" : "SCALAR"
        },
        {
            "bufferView" : 36,
            "componentType" : 5126,
            "count" : 1580,
            "max" : [
                20.68329429626465,
                -11.67574691772461,
                0.019930999726057053
            ],
            "min" : [
                16.470693588256836,
                -16.680418014526367,
                -10.287115097045898
            ],
            "type" : "VEC3"
        },
        {
            "bufferView" : 37,
            "componentType" : 5126,
            "count" : 1580,
            "type" : "VEC3"
        },
        {
            "bufferView" : 38,
            "componentType" : 5126,
            "count" : 1580,
            "type" : "VEC2"
        },
        {
            "bufferView" : 39,
            "componentType" : 5123,
            "count" : 2820,
            "type" : "SCALAR"
        }
    ],
    "bufferViews" : [
        {
            "buffer" : 0,
            "byteLength" : 240,
            "byteOffset" : 0
        },
        {
            "buffer" : 0,
            "byteLength" : 240,
            "byteOffset" : 240
        },
        {
            "buffer" : 0,
            "byteLength" : 160,
            "byteOffset" : 480
        },
        {
            "buffer" : 0,
            "byteLength" : 60,
            "byteOffset" : 640
        },
        {
            "buffer" : 0,
            "byteLength" : 33852,
            "byteOffset" : 700
        },
        {
            "buffer" : 0,
            "byteLength" : 33852,
            "byteOffset" : 34552
        },
        {
            "buffer" : 0,
            "byteLength" : 22568,
            "byteOffset" : 68404
        },
        {
            "buffer" : 0,
            "byteLength" : 19446,
            "byteOffset" : 90972
        },
        {
            "buffer" : 0,
            "byteLength" : 2688,
            "byteOffset" : 110420
        },
        {
            "buffer" : 0,
            "byteLength" : 2688,
            "byteOffset" : 113108
        },
        {
            "buffer" : 0,
            "byteLength" : 1792,
            "byteOffset" : 115796
        },
        {
            "buffer" : 0,
            "byteLength" : 1224,
            "byteOffset" : 117588
        },
        {
            "buffer" : 0,
            "byteLength" : 288,
            "byteOffset" : 118812
        },
        {
            "buffer" : 0,
            "byteLength" : 288,
            "byteOffset" : 119100
        },
        {
            "buffer" : 0,
            "byteLength" : 192,
            "byteOffset" : 119388
        },
        {
            "buffer" : 0,
            "byteLength" : 72,
            "byteOffset" : 119580
        },
        {
            "buffer" : 0,
            "byteLength" : 9000,
            "byteOffset" : 119652
        },
        {
            "buffer" : 0,
            "byteLength" : 9000,
            "byteOffset" : 128652
        },
        {
            "buffer" : 0,
            "byteLength" : 6000,
            "byteOffset" : 137652
        },
        {
            "buffer" : 0,
            "byteLength" : 2904,
            "byteOffset" : 143652
        },
        {
            "buffer" : 0,
            "byteLength" : 18888,
            "byteOffset" : 146556
        },
        {
            "buffer" : 0,
            "byteLength" : 18888,
            "byteOffset" : 165444
        },
        {
            "buffer" : 0,
            "byteLength" : 12592,
            "byteOffset" : 184332
        },
        {
            "buffer" : 0,
            "byteLength" : 8322,
            "byteOffset" : 196924
        },
        {
            "buffer" : 0,
            "byteLength" : 336,
            "byteOffset" : 205248
        },
        {
            "buffer" : 0,
            "byteLength" : 336,
            "byteOffset" : 205584
        },
        {
            "buffer" : 0,
            "byteLength" : 224,
            "byteOffset" : 205920
        },
        {
            "buffer" : 0,
            "byteLength" : 84,
            "byteOffset" : 206144
        },
        {
            "buffer" : 0,
            "byteLength" : 4308,
            "byteOffset" : 206228
        },
        {
            "buffer" : 0,
            "byteLength" : 4308,
            "byteOffset" : 210536
        },
        {
            "buffer" : 0,
            "byteLength" : 2872,
            "byteOffset" : 214844
        },
        {
            "buffer" : 0,
            "byteLength" : 1146,
            "byteOffset" : 217716
        },
        {
            "buffer" : 0,
            "byteLength" : 25740,
            "byteOffset" : 218864
        },
        {
            "buffer" : 0,
            "byteLength" : 25740,
            "byteOffset" : 244604
        },
        {
            "buffer" : 0,
            "byteLength" : 17160,
            "byteOffset" : 270344
        },
        {
            "buffer" : 0,
            "byteLength" : 8796,
            "byteOffset" : 287504
        },
        {
            "buffer" : 0,
            "byteLength" : 18960,
            "byteOffset" : 296300
        },
        {
            "buffer" : 0,
            "byteLength" : 18960,
            "byteOffset" : 315260
        },
        {
            "buffer" : 0,
            "byteLength" : 12640,
            "byteOffset" : 334220
        },
        {
            "buffer" : 0,
            "byteLength" : 5640,
            "byteOffset" : 346860
        }
    ],
    "buffers" : [
        {
            "byteLength" : 352500,
            "uri" : "data:application/octet-stream;base64,"
        }
    ]
}
