<?xml version="1.0" encoding="utf-8"?>
<!-- Generator: Adobe Illustrator 26.3.1, SVG Export Plug-In . SVG Version: 6.00 Build 0)  -->
<svg version="1.1" id="Laag_1" xmlns="http://www.w3.org/2000/svg" xmlns:xlink="http://www.w3.org/1999/xlink" x="0px" y="0px"
	 viewBox="0 0 16 16" style="enable-background:new 0 0 16 16;" xml:space="preserve">
<style type="text/css">
	.st0{fill:#F5F6F7;}
	.st1{fill:#0050A0;}
</style>
<rect x="3.1" y="3.4" class="st0" width="9.1" height="9.1"/>
<path class="st1" d="M2,0C0.9,0,0,0.9,0,2v12c0,1.1,0.9,2,2,2h12c1.1,0,2-0.9,2-2V2c0-1.1-0.9-2-2-2H2z M8.5,4.5v5.8l2.1-2.1
	c0.2-0.2,0.5-0.2,0.7,0s0.2,0.5,0,0.7l-3,3c-0.2,0.2-0.5,0.2-0.7,0c0,0,0,0,0,0l-3-3c-0.2-0.2-0.2-0.5,0-0.7s0.5-0.2,0.7,0l2.1,2.1
	V4.5C7.5,4.2,7.7,4,8,4C8.3,4,8.5,4.2,8.5,4.5z"/>
</svg>
