<?xml version="1.0" encoding="utf-8"?>
<!-- Generator: Adobe Illustrator 26.3.1, SVG Export Plug-In . SVG Version: 6.00 Build 0)  -->
<svg version="1.1" id="Laag_1" xmlns="http://www.w3.org/2000/svg" xmlns:xlink="http://www.w3.org/1999/xlink" x="0px" y="0px"
	 viewBox="0 0 16 16" style="enable-background:new 0 0 16 16;" xml:space="preserve">
<style type="text/css">
	.st0{fill:#F7FAFC;}
	.st1{fill:#0050A0;}
</style>
<rect x="2.7" y="4.3" class="st0" width="10.7" height="8.6"/>
<path class="st1" d="M14,16c1.1,0,2-0.9,2-2V2c0-1.1-0.9-2-2-2H2C0.9,0,0,0.9,0,2v12c0,1.1,0.9,2,2,2H14z M5.9,5.2L10,9.3V6.5
	C10,6.2,10.2,6,10.5,6S11,6.2,11,6.5v4c0,0.3-0.2,0.5-0.5,0.5h-4C6.2,11,6,10.8,6,10.5S6.2,10,6.5,10h2.8L5.2,5.9
	C5,5.7,5,5.4,5.2,5.2C5.4,5,5.7,5,5.9,5.2z"/>
</svg>
