<?xml version="1.0" encoding="utf-8"?>
<!-- Generator: Adobe Illustrator 26.3.1, SVG Export Plug-In . SVG Version: 6.00 Build 0)  -->
<svg version="1.1" id="Laag_1" xmlns="http://www.w3.org/2000/svg" xmlns:xlink="http://www.w3.org/1999/xlink" x="0px" y="0px"
	 viewBox="0 0 16 16" style="enable-background:new 0 0 16 16;" xml:space="preserve">
<style type="text/css">
	.st0{fill:#F4F4F4;}
	.st1{fill:#0050A0;}
</style>
<rect x="2.5" y="3.9" class="st0" width="11" height="8.9"/>
<path class="st1" d="M2.3,15.3c-1,0-1.9-0.8-1.9-1.8v-11c0-1,0.8-1.8,1.9-1.8h11.3c1,0,1.9,0.8,1.9,1.8v11c0,1-0.8,1.8-1.9,1.8H2.3z
	 M10.4,5L5.8,9.5v-3c0-0.3-0.3-0.6-0.6-0.6c-0.3,0-0.6,0.2-0.6,0.6v4.4c0,0.3,0.3,0.6,0.6,0.6h4.5c0.3,0,0.6-0.2,0.6-0.6
	s-0.3-0.6-0.6-0.6H6.6l4.6-4.5c0.2-0.2,0.2-0.6,0-0.8C11,4.8,10.7,4.8,10.4,5C10.4,5,10.4,5,10.4,5z"/>
</svg>
