<?xml version="1.0" encoding="utf-8"?>
<!-- Generator: Adobe Illustrator 26.3.1, SVG Export Plug-In . SVG Version: 6.00 Build 0)  -->
<svg version="1.1" id="Laag_1" xmlns="http://www.w3.org/2000/svg" xmlns:xlink="http://www.w3.org/1999/xlink" x="0px" y="0px"
	 viewBox="0 0 16 16" style="enable-background:new 0 0 16 16;" xml:space="preserve">
<style type="text/css">
	.st0{fill:#FDFEFF;}
	.st1{fill:#0050A0;}
</style>
<rect x="2.7" y="2.5" class="st0" width="10.8" height="10.8"/>
<path class="st1" d="M16,14c0,1.1-0.9,2-2,2H2c-1.1,0-2-0.9-2-2V2c0-1.1,0.9-2,2-2h12c1.1,0,2,0.9,2,2V14z M11.5,7.5H5.7l2.1-2.1
	C8,5.2,8,4.8,7.9,4.6s-0.5-0.2-0.7,0l-3,3C4,7.8,4,8.2,4.1,8.4c0,0,0,0,0,0l3,3c0.2,0.2,0.5,0.2,0.7,0s0.2-0.5,0-0.7L5.7,8.5h5.8
	C11.8,8.5,12,8.3,12,8C12,7.7,11.8,7.5,11.5,7.5z"/>
</svg>
