<?xml version="1.0" encoding="utf-8"?>
<!-- Generator: Adobe Illustrator 26.3.1, SVG Export Plug-In . SVG Version: 6.00 Build 0)  -->
<svg version="1.1" id="Laag_1" xmlns="http://www.w3.org/2000/svg" xmlns:xlink="http://www.w3.org/1999/xlink" x="0px" y="0px"
	 viewBox="0 0 16 16" style="enable-background:new 0 0 16 16;" xml:space="preserve">
<style type="text/css">
	.st0{fill:#F7F7F7;}
	.st1{fill:#0050A0;}
</style>
<rect x="2.5" y="4.5" class="st0" width="11" height="8.8"/>
<path class="st1" d="M0,14c0,1.1,0.9,2,2,2h12c1.1,0,2-0.9,2-2V2c0-1.1-0.9-2-2-2H2C0.9,0,0,0.9,0,2V14z M4.5,7.5h5.8L8.1,5.4
	C8,5.2,8,4.8,8.1,4.6s0.5-0.2,0.7,0l3,3c0.2,0.2,0.2,0.5,0,0.7c0,0,0,0,0,0l-3,3c-0.2,0.2-0.5,0.2-0.7,0s-0.2-0.5,0-0.7l2.1-2.1H4.5
	C4.2,8.5,4,8.3,4,8C4,7.7,4.2,7.5,4.5,7.5z"/>
</svg>
