<?xml version="1.0" encoding="utf-8"?>
<!-- Generator: Adobe Illustrator 26.3.1, SVG Export Plug-In . SVG Version: 6.00 Build 0)  -->
<svg version="1.1" id="Laag_1" xmlns="http://www.w3.org/2000/svg" xmlns:xlink="http://www.w3.org/1999/xlink" x="0px" y="0px"
	 viewBox="0 0 16 16" style="enable-background:new 0 0 16 16;" xml:space="preserve">
<style type="text/css">
	.st0{fill:#FFFFFF;}
	.st1{fill:#0050A0;}
</style>
<rect x="3" y="1.3" class="st0" width="10.5" height="12.3"/>
<path class="st1" d="M2,16c-1.1,0-2-0.9-2-2V2c0-1.1,0.9-2,2-2h12c1.1,0,2,0.9,2,2v12c0,1.1-0.9,2-2,2H2z M8.5,11.5V5.7l2.1,2.1
	c0.2,0.2,0.5,0.2,0.7,0s0.2-0.5,0-0.7l-3-3C8.2,4,7.8,4,7.6,4.1c0,0,0,0,0,0l-3,3c-0.2,0.2-0.2,0.5,0,0.7s0.5,0.2,0.7,0l2.1-2.1v5.8
	C7.5,11.8,7.7,12,8,12C8.3,12,8.5,11.8,8.5,11.5z"/>
</svg>
