{
    "asset" : {
        "generator" : "Khronos glTF Blender I/O v1.4.40",
        "version" : "2.0"
    },
    "scene" : 0,
    "scenes" : [
        {
            "name" : "Scene",
            "nodes" : [
                10
            ]
        }
    ],
    "nodes" : [
        {
            "mesh" : 0,
            "name" : "Color_RGB_0_1_255.009",
            "rotation" : [
                0.7071068286895752,
                0,
                0,
                0.7071067094802856
            ],
            "translation" : [
                0.04643988609313965,
                -0.6432619094848633,
                -1.472010612487793
            ]
        },
        {
            "mesh" : 1,
            "name" : "Color_RGB_120_120_120.009",
            "rotation" : [
                0.7071068286895752,
                0,
                0,
                0.7071067094802856
            ],
            "translation" : [
                0.03290987014770508,
                -1.449169635772705,
                -1.851912498474121
            ]
        },
        {
            "mesh" : 2,
            "name" : "Color_RGB_255_255_255.009",
            "rotation" : [
                0.7071068286895752,
                0,
                0,
                0.7071067094802856
            ],
            "translation" : [
                0.04686760902404785,
                -2.3153271675109863,
                -2.061009407043457
            ]
        },
        {
            "mesh" : 3,
            "name" : "Generic.010",
            "rotation" : [
                0.7071068286895752,
                0,
                0,
                0.7071067094802856
            ],
            "translation" : [
                0.033301353454589844,
                -2.9822938442230225,
                -1.5953302383422852
            ]
        },
        {
            "mesh" : 4,
            "name" : "gipskarton___voorzetwanden.010",
            "rotation" : [
                0.7071068286895752,
                0,
                0,
                0.7071067094802856
            ],
            "translation" : [
                0.13398361206054688,
                1.1285700798034668,
                -0.028751373291015625
            ]
        },
        {
            "mesh" : 5,
            "name" : "GVH_h2_Staal_Generiek.010",
            "rotation" : [
                0.7071068286895752,
                0,
                0,
                0.7071067094802856
            ],
            "translation" : [
                -0.09875011444091797,
                -0.041375160217285156,
                -0.11384773254394531
            ]
        },
        {
            "mesh" : 6,
            "name" : "Laminate__Navy.009",
            "rotation" : [
                0.7071068286895752,
                0,
                0,
                0.7071067094802856
            ],
            "translation" : [
                -0.3669466972351074,
                -1.4498262405395508,
                -1.8519096374511719
            ]
        },
        {
            "mesh" : 7,
            "name" : "Multiplex.010",
            "rotation" : [
                0.7071068286895752,
                0,
                0,
                0.7071067094802856
            ],
            "translation" : [
                0.006844043731689453,
                -4.984494686126709,
                -0.15734481811523438
            ]
        },
        {
            "mesh" : 8,
            "name" : "Toilet.009",
            "rotation" : [
                0.7071068286895752,
                0,
                0,
                0.7071067094802856
            ],
            "translation" : [
                0.028090953826904297,
                -3.3218839168548584,
                -0.3334989547729492
            ]
        },
        {
            "mesh" : 9,
            "name" : "wandbekleding___tegels.007",
            "rotation" : [
                0.7071068286895752,
                0,
                0,
                0.7071067094802856
            ],
            "translation" : [
                0.0069048404693603516,
                -3.156693696975708,
                -1.2345647811889648
            ]
        },
        {
            "children" : [
                0,
                1,
                2,
                3,
                4,
                5,
                6,
                7,
                8,
                9
            ],
            "name" : "Big_WC",
            "translation" : [
                0,
                5.149474620819092,
                0
            ]
        }
    ],
    "materials" : [
        {
            "doubleSided" : true,
            "name" : "wire_000000000.011",
            "pbrMetallicRoughness" : {
                "baseColorFactor" : [
                    0.800000011920929,
                    0.800000011920929,
                    0.800000011920929,
                    1
                ],
                "metallicFactor" : 0,
                "roughnessFactor" : 0.5
            }
        }
    ],
    "meshes" : [
        {
            "name" : "Color_RGB_0_1_255.009",
            "primitives" : [
                {
                    "attributes" : {
                        "POSITION" : 0,
                        "NORMAL" : 1,
                        "TEXCOORD_0" : 2
                    },
                    "indices" : 3,
                    "material" : 0
                }
            ]
        },
        {
            "name" : "Color_RGB_120_120_120.009",
            "primitives" : [
                {
                    "attributes" : {
                        "POSITION" : 4,
                        "NORMAL" : 5,
                        "TEXCOORD_0" : 6
                    },
                    "indices" : 7,
                    "material" : 0
                }
            ]
        },
        {
            "name" : "Color_RGB_255_255_255.009",
            "primitives" : [
                {
                    "attributes" : {
                        "POSITION" : 8,
                        "NORMAL" : 9,
                        "TEXCOORD_0" : 10
                    },
                    "indices" : 11,
                    "material" : 0
                }
            ]
        },
        {
            "name" : "Generic.010",
            "primitives" : [
                {
                    "attributes" : {
                        "POSITION" : 12,
                        "NORMAL" : 13,
                        "TEXCOORD_0" : 14
                    },
                    "indices" : 15,
                    "material" : 0
                }
            ]
        },
        {
            "name" : "gipskarton___voorzetwanden.010",
            "primitives" : [
                {
                    "attributes" : {
                        "POSITION" : 16,
                        "NORMAL" : 17,
                        "TEXCOORD_0" : 18
                    },
                    "indices" : 19,
                    "material" : 0
                }
            ]
        },
        {
            "name" : "GVH_h2_Staal_Generiek.010",
            "primitives" : [
                {
                    "attributes" : {
                        "POSITION" : 20,
                        "NORMAL" : 21,
                        "TEXCOORD_0" : 22
                    },
                    "indices" : 23,
                    "material" : 0
                }
            ]
        },
        {
            "name" : "Laminate__Navy.009",
            "primitives" : [
                {
                    "attributes" : {
                        "POSITION" : 24,
                        "NORMAL" : 25,
                        "TEXCOORD_0" : 26
                    },
                    "indices" : 27,
                    "material" : 0
                }
            ]
        },
        {
            "name" : "Multiplex.010",
            "primitives" : [
                {
                    "attributes" : {
                        "POSITION" : 28,
                        "NORMAL" : 29,
                        "TEXCOORD_0" : 30
                    },
                    "indices" : 31,
                    "material" : 0
                }
            ]
        },
        {
            "name" : "Toilet.009",
            "primitives" : [
                {
                    "attributes" : {
                        "POSITION" : 32,
                        "NORMAL" : 33,
                        "TEXCOORD_0" : 34
                    },
                    "indices" : 35,
                    "material" : 0
                }
            ]
        },
        {
            "name" : "wandbekleding___tegels.007",
            "primitives" : [
                {
                    "attributes" : {
                        "POSITION" : 36,
                        "NORMAL" : 37,
                        "TEXCOORD_0" : 38
                    },
                    "indices" : 39,
                    "material" : 0
                }
            ]
        }
    ],
    "accessors" : [
        {
            "bufferView" : 0,
            "componentType" : 5126,
            "count" : 224,
            "max" : [
                0.48425281047821045,
                0.02952742576599121,
                0.30284661054611206
            ],
            "min" : [
                -0.4842512607574463,
                -0.029526948928833008,
                -0.3428223729133606
            ],
            "type" : "VEC3"
        },
        {
            "bufferView" : 1,
            "componentType" : 5126,
            "count" : 224,
            "type" : "VEC3"
        },
        {
            "bufferView" : 2,
            "componentType" : 5126,
            "count" : 224,
            "type" : "VEC2"
        },
        {
            "bufferView" : 3,
            "componentType" : 5123,
            "count" : 612,
            "type" : "SCALAR"
        },
        {
            "bufferView" : 4,
            "componentType" : 5126,
            "count" : 750,
            "max" : [
                0.3813502788543701,
                0.003931760787963867,
                0.062325239181518555
            ],
            "min" : [
                -0.3145897388458252,
                -0.003941774368286133,
                -0.0576016902923584
            ],
            "type" : "VEC3"
        },
        {
            "bufferView" : 5,
            "componentType" : 5126,
            "count" : 750,
            "type" : "VEC3"
        },
        {
            "bufferView" : 6,
            "componentType" : 5126,
            "count" : 750,
            "type" : "VEC2"
        },
        {
            "bufferView" : 7,
            "componentType" : 5123,
            "count" : 1452,
            "type" : "SCALAR"
        },
        {
            "bufferView" : 8,
            "componentType" : 5126,
            "count" : 1574,
            "max" : [
                0.8184701204299927,
                0.5594706535339355,
                0.9122750759124756
            ],
            "min" : [
                -0.8193264007568359,
                -0.2515523433685303,
                -1.984067678451538
            ],
            "type" : "VEC3"
        },
        {
            "bufferView" : 9,
            "componentType" : 5126,
            "count" : 1574,
            "type" : "VEC3"
        },
        {
            "bufferView" : 10,
            "componentType" : 5126,
            "count" : 1574,
            "type" : "VEC2"
        },
        {
            "bufferView" : 11,
            "componentType" : 5123,
            "count" : 4161,
            "type" : "SCALAR"
        },
        {
            "bufferView" : 12,
            "componentType" : 5126,
            "count" : 2145,
            "max" : [
                2.08333420753479,
                3.9416885375976562,
                2.126215696334839
            ],
            "min" : [
                -2.1362650394439697,
                -1.0640830993652344,
                -8.160271644592285
            ],
            "type" : "VEC3"
        },
        {
            "bufferView" : 13,
            "componentType" : 5126,
            "count" : 2145,
            "type" : "VEC3"
        },
        {
            "bufferView" : 14,
            "componentType" : 5126,
            "count" : 2145,
            "type" : "VEC2"
        },
        {
            "bufferView" : 15,
            "componentType" : 5123,
            "count" : 4398,
            "type" : "SCALAR"
        },
        {
            "bufferView" : 16,
            "componentType" : 5126,
            "count" : 358,
            "max" : [
                2.0974576473236084,
                2.489513397216797,
                6.2570109367370605
            ],
            "min" : [
                -2.2332537174224854,
                -2.627171754837036,
                -4.109090328216553
            ],
            "type" : "VEC3"
        },
        {
            "bufferView" : 17,
            "componentType" : 5126,
            "count" : 358,
            "type" : "VEC3"
        },
        {
            "bufferView" : 18,
            "componentType" : 5126,
            "count" : 358,
            "type" : "VEC2"
        },
        {
            "bufferView" : 19,
            "componentType" : 5123,
            "count" : 573,
            "type" : "SCALAR"
        },
        {
            "bufferView" : 20,
            "componentType" : 5126,
            "count" : 1580,
            "max" : [
                2.2120771408081055,
                2.461087226867676,
                5.087056636810303
            ],
            "min" : [
                -2.000523805618286,
                -2.543583631515503,
                -5.21998929977417
            ],
            "type" : "VEC3"
        },
        {
            "bufferView" : 21,
            "componentType" : 5126,
            "count" : 1580,
            "type" : "VEC3"
        },
        {
            "bufferView" : 22,
            "componentType" : 5126,
            "count" : 1580,
            "type" : "VEC2"
        },
        {
            "bufferView" : 23,
            "componentType" : 5123,
            "count" : 2820,
            "type" : "SCALAR"
        },
        {
            "bufferView" : 24,
            "componentType" : 5126,
            "count" : 24,
            "max" : [
                0.05905413627624512,
                0.003936290740966797,
                0.05905508995056152
            ],
            "min" : [
                -0.05905461311340332,
                -0.003937244415283203,
                -0.05905508995056152
            ],
            "type" : "VEC3"
        },
        {
            "bufferView" : 25,
            "componentType" : 5126,
            "count" : 24,
            "type" : "VEC3"
        },
        {
            "bufferView" : 26,
            "componentType" : 5126,
            "count" : 24,
            "type" : "VEC2"
        },
        {
            "bufferView" : 27,
            "componentType" : 5123,
            "count" : 36,
            "type" : "SCALAR"
        },
        {
            "bufferView" : 28,
            "componentType" : 5126,
            "count" : 20,
            "max" : [
                1.889763593673706,
                2.2834649085998535,
                0.12401580810546875
            ],
            "min" : [
                -1.8897640705108643,
                -2.2834649085998535,
                -0.12401533126831055
            ],
            "type" : "VEC3"
        },
        {
            "bufferView" : 29,
            "componentType" : 5126,
            "count" : 20,
            "type" : "VEC3"
        },
        {
            "bufferView" : 30,
            "componentType" : 5126,
            "count" : 20,
            "type" : "VEC2"
        },
        {
            "bufferView" : 31,
            "componentType" : 5123,
            "count" : 30,
            "type" : "SCALAR"
        },
        {
            "bufferView" : 32,
            "componentType" : 5126,
            "count" : 2821,
            "max" : [
                0.7366284132003784,
                0.8055253028869629,
                1.010380744934082
            ],
            "min" : [
                -0.7397511005401611,
                -1.416032314300537,
                -0.5066823959350586
            ],
            "type" : "VEC3"
        },
        {
            "bufferView" : 33,
            "componentType" : 5126,
            "count" : 2821,
            "type" : "VEC3"
        },
        {
            "bufferView" : 34,
            "componentType" : 5126,
            "count" : 2821,
            "type" : "VEC2"
        },
        {
            "bufferView" : 35,
            "componentType" : 5123,
            "count" : 9723,
            "type" : "SCALAR"
        },
        {
            "bufferView" : 36,
            "componentType" : 5126,
            "count" : 28,
            "max" : [
                1.8897004127502441,
                3.3606834411621094,
                1.7037839889526367
            ],
            "min" : [
                -1.8898272514343262,
                -1.2062461376190186,
                -3.4075679779052734
            ],
            "type" : "VEC3"
        },
        {
            "bufferView" : 37,
            "componentType" : 5126,
            "count" : 28,
            "type" : "VEC3"
        },
        {
            "bufferView" : 38,
            "componentType" : 5126,
            "count" : 28,
            "type" : "VEC2"
        },
        {
            "bufferView" : 39,
            "componentType" : 5123,
            "count" : 42,
            "type" : "SCALAR"
        }
    ],
    "bufferViews" : [
        {
            "buffer" : 0,
            "byteLength" : 2688,
            "byteOffset" : 0
        },
        {
            "buffer" : 0,
            "byteLength" : 2688,
            "byteOffset" : 2688
        },
        {
            "buffer" : 0,
            "byteLength" : 1792,
            "byteOffset" : 5376
        },
        {
            "buffer" : 0,
            "byteLength" : 1224,
            "byteOffset" : 7168
        },
        {
            "buffer" : 0,
            "byteLength" : 9000,
            "byteOffset" : 8392
        },
        {
            "buffer" : 0,
            "byteLength" : 9000,
            "byteOffset" : 17392
        },
        {
            "buffer" : 0,
            "byteLength" : 6000,
            "byteOffset" : 26392
        },
        {
            "buffer" : 0,
            "byteLength" : 2904,
            "byteOffset" : 32392
        },
        {
            "buffer" : 0,
            "byteLength" : 18888,
            "byteOffset" : 35296
        },
        {
            "buffer" : 0,
            "byteLength" : 18888,
            "byteOffset" : 54184
        },
        {
            "buffer" : 0,
            "byteLength" : 12592,
            "byteOffset" : 73072
        },
        {
            "buffer" : 0,
            "byteLength" : 8322,
            "byteOffset" : 85664
        },
        {
            "buffer" : 0,
            "byteLength" : 25740,
            "byteOffset" : 93988
        },
        {
            "buffer" : 0,
            "byteLength" : 25740,
            "byteOffset" : 119728
        },
        {
            "buffer" : 0,
            "byteLength" : 17160,
            "byteOffset" : 145468
        },
        {
            "buffer" : 0,
            "byteLength" : 8796,
            "byteOffset" : 162628
        },
        {
            "buffer" : 0,
            "byteLength" : 4296,
            "byteOffset" : 171424
        },
        {
            "buffer" : 0,
            "byteLength" : 4296,
            "byteOffset" : 175720
        },
        {
            "buffer" : 0,
            "byteLength" : 2864,
            "byteOffset" : 180016
        },
        {
            "buffer" : 0,
            "byteLength" : 1146,
            "byteOffset" : 182880
        },
        {
            "buffer" : 0,
            "byteLength" : 18960,
            "byteOffset" : 184028
        },
        {
            "buffer" : 0,
            "byteLength" : 18960,
            "byteOffset" : 202988
        },
        {
            "buffer" : 0,
            "byteLength" : 12640,
            "byteOffset" : 221948
        },
        {
            "buffer" : 0,
            "byteLength" : 5640,
            "byteOffset" : 234588
        },
        {
            "buffer" : 0,
            "byteLength" : 288,
            "byteOffset" : 240228
        },
        {
            "buffer" : 0,
            "byteLength" : 288,
            "byteOffset" : 240516
        },
        {
            "buffer" : 0,
            "byteLength" : 192,
            "byteOffset" : 240804
        },
        {
            "buffer" : 0,
            "byteLength" : 72,
            "byteOffset" : 240996
        },
        {
            "buffer" : 0,
            "byteLength" : 240,
            "byteOffset" : 241068
        },
        {
            "buffer" : 0,
            "byteLength" : 240,
            "byteOffset" : 241308
        },
        {
            "buffer" : 0,
            "byteLength" : 160,
            "byteOffset" : 241548
        },
        {
            "buffer" : 0,
            "byteLength" : 60,
            "byteOffset" : 241708
        },
        {
            "buffer" : 0,
            "byteLength" : 33852,
            "byteOffset" : 241768
        },
        {
            "buffer" : 0,
            "byteLength" : 33852,
            "byteOffset" : 275620
        },
        {
            "buffer" : 0,
            "byteLength" : 22568,
            "byteOffset" : 309472
        },
        {
            "buffer" : 0,
            "byteLength" : 19446,
            "byteOffset" : 332040
        },
        {
            "buffer" : 0,
            "byteLength" : 336,
            "byteOffset" : 351488
        },
        {
            "buffer" : 0,
            "byteLength" : 336,
            "byteOffset" : 351824
        },
        {
            "buffer" : 0,
            "byteLength" : 224,
            "byteOffset" : 352160
        },
        {
            "buffer" : 0,
            "byteLength" : 84,
            "byteOffset" : 352384
        }
    ],
    "buffers" : [
        {
            "byteLength" : 352468,
            "uri" : "data:application/octet-stream;base64,"
        }
    ]
}
