{
    "asset" : {
        "generator" : "Khronos glTF Blender I/O v1.4.40",
        "version" : "2.0"
    },
    "scene" : 0,
    "scenes" : [
        {
            "name" : "Scene",
            "nodes" : [
                0,
                11
            ]
        }
    ],
    "nodes" : [
        {
            "name" : "Big_WC"
        },
        {
            "mesh" : 0,
            "name" : "Color_RGB_0_1_255.008",
            "rotation" : [
                0.7071068286895752,
                0,
                0,
                0.7071067094802856
            ],
            "translation" : [
                0.03982353210449219,
                -0.7949347496032715,
                -1.4553852081298828
            ]
        },
        {
            "mesh" : 1,
            "name" : "Color_RGB_120_120_120.008",
            "rotation" : [
                0.7071068286895752,
                0,
                0,
                0.7071067094802856
            ],
            "translation" : [
                0.026279449462890625,
                -1.600839376449585,
                -1.835301399230957
            ]
        },
        {
            "mesh" : 2,
            "name" : "Color_RGB_255_255_255.008",
            "rotation" : [
                0.7071068286895752,
                0,
                0,
                0.7071067094802856
            ],
            "translation" : [
                0.04024696350097656,
                -2.4670016765594482,
                -2.0443906784057617
            ]
        },
        {
            "mesh" : 3,
            "name" : "Generic.009",
            "rotation" : [
                0.7071068286895752,
                0,
                0,
                0.7071067094802856
            ],
            "translation" : [
                0.026708602905273438,
                -3.1339685916900635,
                -1.5787248611450195
            ]
        },
        {
            "mesh" : 4,
            "name" : "gipskarton___voorzetwanden.009",
            "rotation" : [
                0.7071068286895752,
                0,
                0,
                0.7071067094802856
            ],
            "translation" : [
                0.12737655639648438,
                0.9768962860107422,
                -0.012141227722167969
            ]
        },
        {
            "mesh" : 5,
            "name" : "GVH_h2_Staal_Generiek.009",
            "rotation" : [
                0.7071068286895752,
                0,
                0,
                0.7071067094802856
            ],
            "translation" : [
                -0.10539054870605469,
                -0.19305896759033203,
                -0.09725666046142578
            ]
        },
        {
            "mesh" : 6,
            "name" : "Laminate__Navy.008",
            "rotation" : [
                0.7071068286895752,
                0,
                0,
                0.7071067094802856
            ],
            "translation" : [
                -0.373565673828125,
                -1.601499319076538,
                -1.8353090286254883
            ]
        },
        {
            "mesh" : 7,
            "name" : "Multiplex.009",
            "rotation" : [
                0.7071068286895752,
                0,
                0,
                0.7071067094802856
            ],
            "translation" : [
                0.0002269744873046875,
                -5.136168003082275,
                -0.14074230194091797
            ]
        },
        {
            "mesh" : 8,
            "name" : "Toilet.008",
            "rotation" : [
                0.7071068286895752,
                0,
                0,
                0.7071067094802856
            ],
            "translation" : [
                0.02144622802734375,
                -3.473558187484741,
                -0.31691646575927734
            ]
        },
        {
            "mesh" : 9,
            "name" : "wandbekleding___tegels.006",
            "rotation" : [
                0.7071068286895752,
                0,
                0,
                0.7071067094802856
            ],
            "translation" : [
                0.0002918243408203125,
                -3.308367967605591,
                -1.2179603576660156
            ]
        },
        {
            "children" : [
                1,
                2,
                3,
                4,
                5,
                6,
                7,
                8,
                9,
                10
            ],
            "name" : "Small_WC",
            "translation" : [
                0,
                5.3810648918151855,
                0
            ]
        }
    ],
    "materials" : [
        {
            "doubleSided" : true,
            "name" : "wire_000000000.010",
            "pbrMetallicRoughness" : {
                "baseColorFactor" : [
                    0.800000011920929,
                    0.800000011920929,
                    0.800000011920929,
                    1
                ],
                "metallicFactor" : 0,
                "roughnessFactor" : 0.5
            }
        }
    ],
    "meshes" : [
        {
            "name" : "Color_RGB_0_1_255.008",
            "primitives" : [
                {
                    "attributes" : {
                        "POSITION" : 0,
                        "NORMAL" : 1,
                        "TEXCOORD_0" : 2
                    },
                    "indices" : 3,
                    "material" : 0
                }
            ]
        },
        {
            "name" : "Color_RGB_120_120_120.008",
            "primitives" : [
                {
                    "attributes" : {
                        "POSITION" : 4,
                        "NORMAL" : 5,
                        "TEXCOORD_0" : 6
                    },
                    "indices" : 7,
                    "material" : 0
                }
            ]
        },
        {
            "name" : "Color_RGB_255_255_255.008",
            "primitives" : [
                {
                    "attributes" : {
                        "POSITION" : 8,
                        "NORMAL" : 9,
                        "TEXCOORD_0" : 10
                    },
                    "indices" : 11,
                    "material" : 0
                }
            ]
        },
        {
            "name" : "Generic.009",
            "primitives" : [
                {
                    "attributes" : {
                        "POSITION" : 12,
                        "NORMAL" : 13,
                        "TEXCOORD_0" : 14
                    },
                    "indices" : 15,
                    "material" : 0
                }
            ]
        },
        {
            "name" : "gipskarton___voorzetwanden.009",
            "primitives" : [
                {
                    "attributes" : {
                        "POSITION" : 16,
                        "NORMAL" : 17,
                        "TEXCOORD_0" : 18
                    },
                    "indices" : 19,
                    "material" : 0
                }
            ]
        },
        {
            "name" : "GVH_h2_Staal_Generiek.009",
            "primitives" : [
                {
                    "attributes" : {
                        "POSITION" : 20,
                        "NORMAL" : 21,
                        "TEXCOORD_0" : 22
                    },
                    "indices" : 23,
                    "material" : 0
                }
            ]
        },
        {
            "name" : "Laminate__Navy.008",
            "primitives" : [
                {
                    "attributes" : {
                        "POSITION" : 24,
                        "NORMAL" : 25,
                        "TEXCOORD_0" : 26
                    },
                    "indices" : 27,
                    "material" : 0
                }
            ]
        },
        {
            "name" : "Multiplex.009",
            "primitives" : [
                {
                    "attributes" : {
                        "POSITION" : 28,
                        "NORMAL" : 29,
                        "TEXCOORD_0" : 30
                    },
                    "indices" : 31,
                    "material" : 0
                }
            ]
        },
        {
            "name" : "Toilet.008",
            "primitives" : [
                {
                    "attributes" : {
                        "POSITION" : 32,
                        "NORMAL" : 33,
                        "TEXCOORD_0" : 34
                    },
                    "indices" : 35,
                    "material" : 0
                }
            ]
        },
        {
            "name" : "wandbekleding___tegels.006",
            "primitives" : [
                {
                    "attributes" : {
                        "POSITION" : 36,
                        "NORMAL" : 37,
                        "TEXCOORD_0" : 38
                    },
                    "indices" : 39,
                    "material" : 0
                }
            ]
        }
    ],
    "accessors" : [
        {
            "bufferView" : 0,
            "componentType" : 5126,
            "count" : 224,
            "max" : [
                0.4842519760131836,
                0.029523372650146484,
                0.30284661054611206
            ],
            "min" : [
                -0.4842519760131836,
                -0.029531002044677734,
                -0.3428223729133606
            ],
            "type" : "VEC3"
        },
        {
            "bufferView" : 1,
            "componentType" : 5126,
            "count" : 224,
            "type" : "VEC3"
        },
        {
            "bufferView" : 2,
            "componentType" : 5126,
            "count" : 224,
            "type" : "VEC2"
        },
        {
            "bufferView" : 3,
            "componentType" : 5123,
            "count" : 612,
            "type" : "SCALAR"
        },
        {
            "bufferView" : 4,
            "componentType" : 5126,
            "count" : 750,
            "max" : [
                0.3813505172729492,
                0.003928661346435547,
                0.062326908111572266
            ],
            "min" : [
                -0.3145895004272461,
                -0.003944873809814453,
                -0.05760002136230469
            ],
            "type" : "VEC3"
        },
        {
            "bufferView" : 5,
            "componentType" : 5126,
            "count" : 750,
            "type" : "VEC3"
        },
        {
            "bufferView" : 6,
            "componentType" : 5126,
            "count" : 750,
            "type" : "VEC2"
        },
        {
            "bufferView" : 7,
            "componentType" : 5123,
            "count" : 1452,
            "type" : "SCALAR"
        },
        {
            "bufferView" : 8,
            "componentType" : 5126,
            "count" : 1575,
            "max" : [
                0.8184757232666016,
                0.5594732761383057,
                0.9122755527496338
            ],
            "min" : [
                -0.8193206787109375,
                -0.25154948234558105,
                -1.9840672016143799
            ],
            "type" : "VEC3"
        },
        {
            "bufferView" : 9,
            "componentType" : 5126,
            "count" : 1575,
            "type" : "VEC3"
        },
        {
            "bufferView" : 10,
            "componentType" : 5126,
            "count" : 1575,
            "type" : "VEC2"
        },
        {
            "bufferView" : 11,
            "componentType" : 5123,
            "count" : 4161,
            "type" : "SCALAR"
        },
        {
            "bufferView" : 12,
            "componentType" : 5126,
            "count" : 2145,
            "max" : [
                2.0833187103271484,
                3.9416801929473877,
                2.1262147426605225
            ],
            "min" : [
                -2.136280059814453,
                -1.064091444015503,
                -8.160271644592285
            ],
            "type" : "VEC3"
        },
        {
            "bufferView" : 13,
            "componentType" : 5126,
            "count" : 2145,
            "type" : "VEC3"
        },
        {
            "bufferView" : 14,
            "componentType" : 5126,
            "count" : 2145,
            "type" : "VEC2"
        },
        {
            "bufferView" : 15,
            "componentType" : 5123,
            "count" : 4398,
            "type" : "SCALAR"
        },
        {
            "bufferView" : 16,
            "componentType" : 5126,
            "count" : 357,
            "max" : [
                2.097452163696289,
                2.4895100593566895,
                6.2570109367370605
            ],
            "min" : [
                -2.2332592010498047,
                -2.6271748542785645,
                -4.109090328216553
            ],
            "type" : "VEC3"
        },
        {
            "bufferView" : 17,
            "componentType" : 5126,
            "count" : 357,
            "type" : "VEC3"
        },
        {
            "bufferView" : 18,
            "componentType" : 5126,
            "count" : 357,
            "type" : "VEC2"
        },
        {
            "bufferView" : 19,
            "componentType" : 5123,
            "count" : 573,
            "type" : "SCALAR"
        },
        {
            "bufferView" : 20,
            "componentType" : 5126,
            "count" : 1580,
            "max" : [
                2.2121076583862305,
                2.46107816696167,
                5.087055683135986
            ],
            "min" : [
                -2.000493049621582,
                -2.543592929840088,
                -5.219990253448486
            ],
            "type" : "VEC3"
        },
        {
            "bufferView" : 21,
            "componentType" : 5126,
            "count" : 1580,
            "type" : "VEC3"
        },
        {
            "bufferView" : 22,
            "componentType" : 5126,
            "count" : 1580,
            "type" : "VEC2"
        },
        {
            "bufferView" : 23,
            "componentType" : 5123,
            "count" : 2820,
            "type" : "SCALAR"
        },
        {
            "bufferView" : 24,
            "componentType" : 5126,
            "count" : 24,
            "max" : [
                0.05905628204345703,
                0.003936767578125,
                0.05905508995056152
            ],
            "min" : [
                -0.059052467346191406,
                -0.003936767578125,
                -0.05905508995056152
            ],
            "type" : "VEC3"
        },
        {
            "bufferView" : 25,
            "componentType" : 5126,
            "count" : 24,
            "type" : "VEC3"
        },
        {
            "bufferView" : 26,
            "componentType" : 5126,
            "count" : 24,
            "type" : "VEC2"
        },
        {
            "bufferView" : 27,
            "componentType" : 5123,
            "count" : 36,
            "type" : "SCALAR"
        },
        {
            "bufferView" : 28,
            "componentType" : 5126,
            "count" : 20,
            "max" : [
                1.8897647857666016,
                2.2834649085998535,
                0.12401580810546875
            ],
            "min" : [
                -1.8897628784179688,
                -2.2834649085998535,
                -0.12401533126831055
            ],
            "type" : "VEC3"
        },
        {
            "bufferView" : 29,
            "componentType" : 5126,
            "count" : 20,
            "type" : "VEC3"
        },
        {
            "bufferView" : 30,
            "componentType" : 5126,
            "count" : 20,
            "type" : "VEC2"
        },
        {
            "bufferView" : 31,
            "componentType" : 5123,
            "count" : 30,
            "type" : "SCALAR"
        },
        {
            "bufferView" : 32,
            "componentType" : 5126,
            "count" : 2821,
            "max" : [
                0.7366361618041992,
                0.8055257797241211,
                1.0103812217712402
            ],
            "min" : [
                -0.7397432327270508,
                -1.416031837463379,
                -0.5066816806793213
            ],
            "type" : "VEC3"
        },
        {
            "bufferView" : 33,
            "componentType" : 5126,
            "count" : 2821,
            "type" : "VEC3"
        },
        {
            "bufferView" : 34,
            "componentType" : 5126,
            "count" : 2821,
            "type" : "VEC2"
        },
        {
            "bufferView" : 35,
            "componentType" : 5123,
            "count" : 9723,
            "type" : "SCALAR"
        },
        {
            "bufferView" : 36,
            "componentType" : 5126,
            "count" : 28,
            "max" : [
                1.889699935913086,
                3.360682964324951,
                1.7037835121154785
            ],
            "min" : [
                -1.8898277282714844,
                -1.2062468528747559,
                -3.4075684547424316
            ],
            "type" : "VEC3"
        },
        {
            "bufferView" : 37,
            "componentType" : 5126,
            "count" : 28,
            "type" : "VEC3"
        },
        {
            "bufferView" : 38,
            "componentType" : 5126,
            "count" : 28,
            "type" : "VEC2"
        },
        {
            "bufferView" : 39,
            "componentType" : 5123,
            "count" : 42,
            "type" : "SCALAR"
        }
    ],
    "bufferViews" : [
        {
            "buffer" : 0,
            "byteLength" : 2688,
            "byteOffset" : 0
        },
        {
            "buffer" : 0,
            "byteLength" : 2688,
            "byteOffset" : 2688
        },
        {
            "buffer" : 0,
            "byteLength" : 1792,
            "byteOffset" : 5376
        },
        {
            "buffer" : 0,
            "byteLength" : 1224,
            "byteOffset" : 7168
        },
        {
            "buffer" : 0,
            "byteLength" : 9000,
            "byteOffset" : 8392
        },
        {
            "buffer" : 0,
            "byteLength" : 9000,
            "byteOffset" : 17392
        },
        {
            "buffer" : 0,
            "byteLength" : 6000,
            "byteOffset" : 26392
        },
        {
            "buffer" : 0,
            "byteLength" : 2904,
            "byteOffset" : 32392
        },
        {
            "buffer" : 0,
            "byteLength" : 18900,
            "byteOffset" : 35296
        },
        {
            "buffer" : 0,
            "byteLength" : 18900,
            "byteOffset" : 54196
        },
        {
            "buffer" : 0,
            "byteLength" : 12600,
            "byteOffset" : 73096
        },
        {
            "buffer" : 0,
            "byteLength" : 8322,
            "byteOffset" : 85696
        },
        {
            "buffer" : 0,
            "byteLength" : 25740,
            "byteOffset" : 94020
        },
        {
            "buffer" : 0,
            "byteLength" : 25740,
            "byteOffset" : 119760
        },
        {
            "buffer" : 0,
            "byteLength" : 17160,
            "byteOffset" : 145500
        },
        {
            "buffer" : 0,
            "byteLength" : 8796,
            "byteOffset" : 162660
        },
        {
            "buffer" : 0,
            "byteLength" : 4284,
            "byteOffset" : 171456
        },
        {
            "buffer" : 0,
            "byteLength" : 4284,
            "byteOffset" : 175740
        },
        {
            "buffer" : 0,
            "byteLength" : 2856,
            "byteOffset" : 180024
        },
        {
            "buffer" : 0,
            "byteLength" : 1146,
            "byteOffset" : 182880
        },
        {
            "buffer" : 0,
            "byteLength" : 18960,
            "byteOffset" : 184028
        },
        {
            "buffer" : 0,
            "byteLength" : 18960,
            "byteOffset" : 202988
        },
        {
            "buffer" : 0,
            "byteLength" : 12640,
            "byteOffset" : 221948
        },
        {
            "buffer" : 0,
            "byteLength" : 5640,
            "byteOffset" : 234588
        },
        {
            "buffer" : 0,
            "byteLength" : 288,
            "byteOffset" : 240228
        },
        {
            "buffer" : 0,
            "byteLength" : 288,
            "byteOffset" : 240516
        },
        {
            "buffer" : 0,
            "byteLength" : 192,
            "byteOffset" : 240804
        },
        {
            "buffer" : 0,
            "byteLength" : 72,
            "byteOffset" : 240996
        },
        {
            "buffer" : 0,
            "byteLength" : 240,
            "byteOffset" : 241068
        },
        {
            "buffer" : 0,
            "byteLength" : 240,
            "byteOffset" : 241308
        },
        {
            "buffer" : 0,
            "byteLength" : 160,
            "byteOffset" : 241548
        },
        {
            "buffer" : 0,
            "byteLength" : 60,
            "byteOffset" : 241708
        },
        {
            "buffer" : 0,
            "byteLength" : 33852,
            "byteOffset" : 241768
        },
        {
            "buffer" : 0,
            "byteLength" : 33852,
            "byteOffset" : 275620
        },
        {
            "buffer" : 0,
            "byteLength" : 22568,
            "byteOffset" : 309472
        },
        {
            "buffer" : 0,
            "byteLength" : 19446,
            "byteOffset" : 332040
        },
        {
            "buffer" : 0,
            "byteLength" : 336,
            "byteOffset" : 351488
        },
        {
            "buffer" : 0,
            "byteLength" : 336,
            "byteOffset" : 351824
        },
        {
            "buffer" : 0,
            "byteLength" : 224,
            "byteOffset" : 352160
        },
        {
            "buffer" : 0,
            "byteLength" : 84,
            "byteOffset" : 352384
        }
    ],
    "buffers" : [
        {
            "byteLength" : 352468,
            "uri" : "data:application/octet-stream;base64,"
        }
    ]
}
